<svg xmlns="http://www.w3.org/2000/svg" viewBox="0 0 128 128" width="128" height="128"><title>Came kit frame: finished, Full</title><defs><linearGradient id="kf-fo" x1="14" y1="10" x2="114" y2="118" gradientUnits="userSpaceOnUse"><stop offset="0" stop-color="#9EA4B4"/><stop offset="0.45" stop-color="#70778C"/><stop offset="0.8" stop-color="#50576F"/><stop offset="1" stop-color="#343A51"/></linearGradient><linearGradient id="kf-fi" x1="14" y1="10" x2="114" y2="118" gradientUnits="userSpaceOnUse"><stop offset="0" stop-color="#343A51"/><stop offset="0.55" stop-color="#50576F"/><stop offset="1" stop-color="#70778C"/></linearGradient></defs><path d="M127.2 64A63.2 63.2 0 1 1 0.8 64A63.2 63.2 0 1 1 127.2 64ZM125.6 64A61.6 61.6 0 1 0 2.4 64A61.6 61.6 0 1 0 125.6 64Z" fill="#080B16" fill-rule="evenodd"/><path d="M125.6 64A61.6 61.6 0 1 1 2.4 64A61.6 61.6 0 1 1 125.6 64ZM121 64A57 57 0 1 0 7 64A57 57 0 1 0 121 64Z" fill="url(#kf-fo)" fill-rule="evenodd"/><path d="M121 64A57 57 0 1 1 7 64A57 57 0 1 1 121 64ZM114.9 64A50.9 50.9 0 1 0 13.1 64A50.9 50.9 0 1 0 114.9 64Z" fill="url(#kf-fi)" fill-rule="evenodd"/><path d="M121.2 64A57.2 57.2 0 1 1 6.8 64A57.2 57.2 0 1 1 121.2 64ZM120.8 64A56.8 56.8 0 1 0 7.2 64A56.8 56.8 0 1 0 120.8 64Z" fill="#1E2232" fill-opacity=".5" fill-rule="evenodd"/><circle cx="64" cy="64" r="50.9" fill="none" stroke="#2A2E3B" stroke-width="2.2"/></svg>
