<svg xmlns="http://www.w3.org/2000/svg" viewBox="0 0 128 128" width="128" height="128"><title>Ready on another job (face, mid)</title><defs><filter id="v7oo-ds" x="-25%" y="-25%" width="150%" height="150%" color-interpolation-filters="sRGB"><feDropShadow dx="1.1" dy="1.6" stdDeviation=".9" flood-color="#070A15" flood-opacity=".6"/></filter><clipPath id="v7oo-wc"><circle cx="64" cy="64" r="52.4"/></clipPath><radialGradient id="v7oo-sh" cx="46" cy="40" r="42" gradientUnits="userSpaceOnUse"><stop offset="0" stop-color="#fff" stop-opacity=".07"/><stop offset="1" stop-color="#fff" stop-opacity="0"/></radialGradient><filter id="v7oo-ib" x="-10%" y="-10%" width="120%" height="120%" color-interpolation-filters="sRGB"><feGaussianBlur stdDeviation="1.2"/></filter><mask id="v7oo-im"><rect width="128" height="128" fill="#fff"/><circle cx="66.3" cy="67.2" r="52.4" fill="#000"/></mask><radialGradient id="v7oo-wl" cx="58" cy="54" r="64" gradientUnits="userSpaceOnUse"><stop offset="0" stop-color="#15355A"/><stop offset="1" stop-color="#08162C"/></radialGradient><mask id="v7oo-dsm" maskUnits="userSpaceOnUse" x="0" y="0" width="128" height="128"><circle cx="49" cy="42" r="28.2" fill="#fff"/><path d="M49 13A29 29 0 0 1 49 71A5.22 29 0 0 0 49 13Z" transform="rotate(28 49 42)" fill="#000" stroke="#000" stroke-width="2.4"/></mask><linearGradient id="v7oo-cg" x1="52.13" y1="0" x2="78" y2="0" gradientUnits="userSpaceOnUse"><stop offset="0" stop-color="#C4CCE0"/><stop offset=".45" stop-color="#E3E8F3"/><stop offset="1" stop-color="#F5F6FA"/></linearGradient><clipPath id="v7oo-lc"><path d="M49 13A29 29 0 0 1 49 71A5.22 29 0 0 0 49 13Z" transform="rotate(28 49 42)"/></clipPath><filter id="v7oo-sb" filterUnits="userSpaceOnUse" x="-20" y="-20" width="168" height="168" color-interpolation-filters="sRGB"><feGaussianBlur stdDeviation="0.8"/></filter><filter id="v7oo-mb" filterUnits="userSpaceOnUse" x="-20" y="-20" width="168" height="168" color-interpolation-filters="sRGB"><feGaussianBlur stdDeviation="1.74"/></filter><clipPath id="v7of1h-w"><circle cx="64" cy="64" r="52.4"/></clipPath></defs><g clip-path="url(#v7of1h-w)"><circle cx="64" cy="64" r="52.4" fill="url(#v7oo-wl)"/><circle cx="64" cy="64" r="52.4" fill="url(#v7oo-sh)"/><g clip-path="url(#v7oo-wc)"><circle cx="64" cy="64" r="53.4" fill="#070A15" fill-opacity=".6" mask="url(#v7oo-im)" filter="url(#v7oo-ib)"/></g><circle cx="49" cy="42" r="29" fill="#2B4C72" fill-opacity=".38"/><g mask="url(#v7oo-dsm)"><path d="M31.5 30L39.5 22.5M39.5 22.5L44 35.5M44 35.5L31.5 30M44 35.5L35 45M35 45L42.5 55" fill="none" stroke="#CDB57C" stroke-opacity="0.3" stroke-width="0.36" transform="translate(.25 .3)" stroke-linecap="round" stroke-linejoin="round"/><path d="M31.5 30L39.5 22.5M39.5 22.5L44 35.5M44 35.5L31.5 30M44 35.5L35 45M35 45L42.5 55" fill="none" stroke="#3A2709" stroke-opacity="0.5" stroke-width="0.6" stroke-linecap="round" stroke-linejoin="round"/><g fill="#3A2709" fill-opacity="0.6"><circle cx="31.5" cy="30" r="1.15"/><circle cx="39.5" cy="22.5" r="0.95"/><circle cx="44" cy="35.5" r="1.1"/><circle cx="35" cy="45" r="0.9"/><circle cx="42.5" cy="55" r="1"/></g><g fill="#CDB57C" fill-opacity="0.75"><circle cx="31.8" cy="30.35" r="0.63"/><circle cx="39.8" cy="22.85" r="0.52"/><circle cx="44.3" cy="35.85" r="0.61"/><circle cx="35.3" cy="45.35" r="0.5"/><circle cx="42.8" cy="55.35" r="0.55"/></g></g><path d="M49 13A29 29 0 0 1 49 71A5.22 29 0 0 0 49 13Z" fill="url(#v7oo-cg)" transform="rotate(28 49 42)" filter="url(#v7oo-ds)"/><g clip-path="url(#v7oo-lc)"><g filter="url(#v7oo-mb)"><g fill="#94A0C2" transform="rotate(28 49 42)"><ellipse cx="69.88" cy="30.4" rx="4.35" ry="3.48" transform="rotate(0 69.88 30.4)" fill-opacity="0.22"/><ellipse cx="68.72" cy="44.32" rx="3.48" ry="5.51" transform="rotate(0 68.72 44.32)" fill-opacity="0.19"/><ellipse cx="64.08" cy="53.6" rx="3.19" ry="3.48" transform="rotate(0 64.08 53.6)" fill-opacity="0.15"/><ellipse cx="63.5" cy="38.52" rx="4.06" ry="3.48" transform="rotate(0 63.5 38.52)" fill-opacity="0.11"/></g></g></g><g clip-path="url(#v7oo-lc)"><g filter="url(#v7oo-sb)"><g transform="rotate(28 49 42)"><path d="M49 13A5.22 29 0 0 1 49 71" fill="none" stroke="#94A0C2" stroke-width="2.61" stroke-opacity=".8"/></g><circle cx="49" cy="42" r="27.84" fill="none" stroke="#F5F6FA" stroke-width="2.32"/></g></g></g></svg>
